<mxfile host="app.diagrams.net" modified="2023-11-21T12:17:56.334Z" agent="Mozilla/5.0 (Macintosh; Intel Mac OS X 10_15_7) AppleWebKit/537.36 (KHTML, like Gecko) Chrome/119.0.0.0 Safari/537.36" etag="qG-bMkptyyBI9hMJcSsS" version="22.1.3" type="device">
  <diagram name="Page-1" id="-yVWf5U5GomzzCzLPF7r">
    <mxGraphModel dx="1058" dy="781" grid="1" gridSize="10" guides="1" tooltips="1" connect="1" arrows="1" fold="1" page="1" pageScale="1" pageWidth="827" pageHeight="1169" math="0" shadow="0">
      <root>
        <mxCell id="0" />
        <mxCell id="1" parent="0" />
        <mxCell id="5nrqIxGNl2aOhlGHYFel-6" value="" style="shape=flexArrow;endArrow=classic;html=1;rounded=0;strokeWidth=3;" parent="1" edge="1">
          <mxGeometry width="50" height="50" relative="1" as="geometry">
            <mxPoint x="270" y="250" as="sourcePoint" />
            <mxPoint x="310" y="249.5" as="targetPoint" />
          </mxGeometry>
        </mxCell>
        <mxCell id="r9SthREOg3ZQguJcwbZm-15" value="Sensors" style="text;html=1;strokeColor=none;fillColor=none;align=center;verticalAlign=middle;whiteSpace=wrap;rounded=0;container=0;" parent="1" vertex="1">
          <mxGeometry x="172" y="290" width="60" height="30" as="geometry" />
        </mxCell>
        <mxCell id="r9SthREOg3ZQguJcwbZm-16" value="" style="shape=image;verticalLabelPosition=bottom;labelBackgroundColor=default;verticalAlign=top;aspect=fixed;imageAspect=0;image=data:image/svg+xml,PHN2ZyB4bWxucz0iaHR0cDovL3d3dy53My5vcmcvMjAwMC9zdmciIHZpZXdCb3g9IjAgMCAyNCAyNCIgaGVpZ2h0PSI4MDBweCIgd2lkdGg9IjgwMHB4IiBmaWxsPSIjMDAwMDAwIj4mI3hhOzxwYXRoIGQ9Ik02LjM0OTk5IDYuMzQ4OTNMNC45Mjk5OSA0LjkyODkzQzYuODA1MjcgMy4wNTQyMiA5LjM0ODM1IDIuMDAxMDcgMTIgMi4wMDEwN0MxNC42NTE2IDIuMDAxMDcgMTcuMTk0NyAzLjA1NDIyIDE5LjA3IDQuOTI4OTNMMTcuNjUgNi4zNDg5M0MxNi4xNTAzIDQuODUyODMgMTQuMTE4NCA0LjAxMjYzIDEyIDQuMDEyNjNDOS44ODE2MiA0LjAxMjYzIDcuODQ5NzIgNC44NTI4MyA2LjM0OTk5IDYuMzQ4OTNaIi8+JiN4YTs8cGF0aCBkPSJNOS4xNzAwMSA5LjE2ODkzTDcuNzYwMDEgNy43NTg5M0M4Ljg4NTAxIDYuNjM1MzMgMTAuNDEgNi4wMDQyMSAxMiA2LjAwNDIxQzEzLjU5IDYuMDA0MjEgMTUuMTE1IDYuNjM1MzMgMTYuMjQgNy43NTg5M0wxNC44MiA5LjE3ODkzQzE0LjA3MzMgOC40Mjc3NiAxMy4wNTkyIDguMDAzNCAxMiA3Ljk5ODkzQzExLjQ3NDYgNy45OTg1MiAxMC45NTQyIDguMTAxNjMgMTAuNDY4NiA4LjMwMjM5QzkuOTgzMDMgOC41MDMxNCA5LjU0MTc2IDguNzk3NTkgOS4xNzAwMSA5LjE2ODkzWiIvPiYjeGE7PHBhdGggZD0iTTE4IDEwLjk5ODlIMTRDMTQgMTEuNTI5NCAxMy43ODkzIDEyLjAzODEgMTMuNDE0MiAxMi40MTMxQzEzLjAzOTEgMTIuNzg4MiAxMi41MzA0IDEyLjk5ODkgMTIgMTIuOTk4OUMxMS40Njk2IDEyLjk5ODkgMTAuOTYwOSAxMi43ODgyIDEwLjU4NTggMTIuNDEzMUMxMC4yMTA3IDEyLjAzODEgMTAgMTEuNTI5NCAxMCAxMC45OTg5SDZDNS40Njk1NyAxMC45OTg5IDQuOTYwODYgMTEuMjA5NiA0LjU4NTc5IDExLjU4NDdDNC4yMTA3MSAxMS45NTk4IDQgMTIuNDY4NSA0IDEyLjk5ODlWMjEuOTk4OUgyMFYxMi45OTg5QzIwIDEyLjQ2ODUgMTkuNzg5MyAxMS45NTk4IDE5LjQxNDIgMTEuNTg0N0MxOS4wMzkxIDExLjIwOTYgMTguNTMwNCAxMC45OTg5IDE4IDEwLjk5ODlaTTYgMTcuOTk4OVYxNC45OTg5SDE4VjE3Ljk5ODlINloiIGNsaXAtcnVsZT0iZXZlbm9kZCIgZmlsbC1ydWxlPSJldmVub2RkIi8+JiN4YTs8cGF0aCBkPSJNMTMgMTAuOTk4OUMxMyAxMS41NTEyIDEyLjU1MjMgMTEuOTk4OSAxMiAxMS45OTg5QzExLjQ0NzcgMTEuOTk4OSAxMSAxMS41NTEyIDExIDEwLjk5ODlDMTEgMTAuNDQ2NiAxMS40NDc3IDkuOTk4OTMgMTIgOS45OTg5M0MxMi41NTIzIDkuOTk4OTMgMTMgMTAuNDQ2NiAxMyAxMC45OTg5WiIvPiYjeGE7PC9zdmc+;container=0;" parent="1" vertex="1">
          <mxGeometry x="150" y="203" width="42" height="42" as="geometry" />
        </mxCell>
        <mxCell id="r9SthREOg3ZQguJcwbZm-17" value="" style="shape=image;verticalLabelPosition=bottom;labelBackgroundColor=default;verticalAlign=top;aspect=fixed;imageAspect=0;image=data:image/svg+xml,PHN2ZyB4bWxucz0iaHR0cDovL3d3dy53My5vcmcvMjAwMC9zdmciIGZpbGw9Im5vbmUiIHZpZXdCb3g9IjAgMCAyNCAyNCIgaGVpZ2h0PSI4MDBweCIgd2lkdGg9IjgwMHB4Ij4mI3hhOzxnIGlkPSJGaWxlIC8gRmlsZXMiPiYjeGE7PHBhdGggc3Ryb2tlLWxpbmVqb2luPSJyb3VuZCIgc3Ryb2tlLWxpbmVjYXA9InJvdW5kIiBzdHJva2Utd2lkdGg9IjIiIHN0cm9rZT0iIzAwMDAwMCIgZD0iTTkgNkg5LjMzNjg3QzkuNTgxNDYgNiA5LjcwMzg1IDYgOS44MTg5MyA2LjAyNzYzQzkuOTIwOTcgNi4wNTIxMyAxMC4wMTg5IDYuMDkyNjMgMTAuMTA4NCA2LjE0NzQ2QzEwLjIwOTMgNi4yMDkyOCAxMC4yOTU5IDYuMjk1OTEgMTAuNDY4OCA2LjQ2ODc1TDEzLjUzMTUgOS41MzE0OUMxMy43MDQ0IDkuNzA0NDQgMTMuNzkwNCA5Ljc5MDQ0IDEzLjg1MjMgOS44OTEzNUMxMy45MDcxIDkuOTgwODIgMTMuOTQ4MiAxMC4wNzg2IDEzLjk3MjcgMTAuMTgwN0MxNCAxMC4yOTQ2IDE0IDEwLjQxNTUgMTQgMTAuNjU1MlYxOE05IDZINC41OTk2MUM0LjAzOTU2IDYgMy43NTk4MSA2IDMuNTQ1OSA2LjEwODk5QzMuMzU3NzQgNi4yMDQ4NyAzLjIwNDg3IDYuMzU3NzQgMy4xMDg5OSA2LjU0NTlDMyA2Ljc1OTgxIDMgNy4wNDAwNCAzIDcuNjAwMVYxOS40MDAxQzMgMTkuOTYwMSAzIDIwLjIzOTggMy4xMDg5OSAyMC40NTM3QzMuMjA0ODcgMjAuNjQxOSAzLjM1Nzc0IDIwLjc5NTIgMy41NDU5IDIwLjg5MTFDMy43NTk2IDIxIDQuMDM5MDIgMjEgNC41OTggMjFMMTIuNDAxMSAyMUMxMi45NiAyMSAxMy4yNDA1IDIxIDEzLjQ1NDIgMjAuODkxMUMxMy42NDIzIDIwLjc5NTIgMTMuNzk0OCAyMC42NDIxIDEzLjg5MDYgMjAuNDUzOUMxMy45OTk2IDIwLjI0IDE0IDE5Ljk1OTkgMTQgMTkuMzk5OVYxOE05IDZWOS40QzkgOS45NjAwNSA5IDEwLjIzOTkgOS4xMDg5OSAxMC40NTM4QzkuMjA0ODcgMTAuNjQyIDkuMzU3NzQgMTAuNzk1MiA5LjU0NTkgMTAuODkxMUM5Ljc1OTYgMTEgMTAuMDM5IDExIDEwLjU5OCAxMUgxMy45OTk2TTEwIDYuMDAwMVY0LjYwMDFDMTAgNC4wNDAwNSAxMCAzLjc1OTgxIDEwLjEwOSAzLjU0NTlDMTAuMjA0OSAzLjM1Nzc0IDEwLjM1NzcgMy4yMDQ4NyAxMC41NDU5IDMuMTA4OTlDMTAuNzU5OCAzIDExLjAzOTYgMyAxMS41OTk2IDNIMTZNMTYgM0gxNi4zMzY5QzE2LjU4MTUgMyAxNi43MDM4IDMgMTYuODE4OSAzLjAyNzYzQzE2LjkyMSAzLjA1MjEzIDE3LjAxODkgMy4wOTI2MyAxNy4xMDg0IDMuMTQ3NDZDMTcuMjA5MyAzLjIwOTI4IDE3LjI5NTkgMy4yOTU5MiAxNy40Njg4IDMuNDY4NzVMMjAuNTMxNSA2LjUzMTQ5QzIwLjcwNDQgNi43MDQ0NCAyMC43OTA0IDYuNzkwNDQgMjAuODUyMyA2Ljg5MTM1QzIwLjkwNzEgNi45ODA4MiAyMC45NDgyIDcuMDc4NjMgMjAuOTcyNyA3LjE4MDY2QzIxIDcuMjk0NTggMjEgNy40MTU1MiAyMSA3LjY1NTE1VjE2LjM5OTlDMjEgMTYuOTU5OSAyMC45OTk2IDE3LjI0IDIwLjg5MDYgMTcuNDUzOUMyMC43OTQ4IDE3LjY0MjEgMjAuNjQyOSAxNy43OTUyIDIwLjQ1NDggMTcuODkxMUMyMC4yNDExIDE4IDE5Ljk2MSAxOCAxOS40MDIgMThIMTRNMTYgM1Y2LjRDMTYgNi45NjAwNSAxNiA3LjIzOTg4IDE2LjEwOSA3LjQ1MzhDMTYuMjA0OSA3LjY0MTk2IDE2LjM1NzcgNy43OTUyNCAxNi41NDU5IDcuODkxMTFDMTYuNzU5NiA4IDE3LjAzOSA4IDE3LjU5OCA4SDIwLjk5OTYiIGlkPSJWZWN0b3IiLz4mI3hhOzwvZz4mI3hhOzwvc3ZnPg==;container=0;" parent="1" vertex="1">
          <mxGeometry x="155" y="253" width="32" height="32" as="geometry" />
        </mxCell>
        <mxCell id="r9SthREOg3ZQguJcwbZm-18" value="" style="shape=image;verticalLabelPosition=bottom;labelBackgroundColor=default;verticalAlign=top;aspect=fixed;imageAspect=0;image=data:image/svg+xml,PHN2ZyB4bWxuczp4bGluaz0iaHR0cDovL3d3dy53My5vcmcvMTk5OS94bGluayIgeG1sbnM9Imh0dHA6Ly93d3cudzMub3JnLzIwMDAvc3ZnIiB4bWw6c3BhY2U9InByZXNlcnZlIiB2aWV3Qm94PSIwIDAgMzIuMDU1IDMyLjA1NSIgaWQ9IkNhcGFfMSIgdmVyc2lvbj0iMS4xIiB3aWR0aD0iODAwcHgiIGhlaWdodD0iODAwcHgiIGZpbGw9IiMwMDAwMDAiPiYjeGE7PGc+JiN4YTsJPHBhdGggZD0iTTMuOTY4LDEyLjA2MUMxLjc3NSwxMi4wNjEsMCwxMy44MzUsMCwxNi4wMjdjMCwyLjE5MiwxLjc3MywzLjk2NywzLjk2OCwzLjk2N2MyLjE4OSwwLDMuOTY2LTEuNzcyLDMuOTY2LTMuOTY3JiMxMDsmIzk7JiM5O0M3LjkzNCwxMy44MzUsNi4xNTcsMTIuMDYxLDMuOTY4LDEyLjA2MXogTTE2LjIzMywxMi4wNjFjLTIuMTg4LDAtMy45NjgsMS43NzMtMy45NjgsMy45NjVjMCwyLjE5MiwxLjc3OCwzLjk2NywzLjk2OCwzLjk2NyYjMTA7JiM5OyYjOTtzMy45Ny0xLjc3MiwzLjk3LTMuOTY3QzIwLjIwMSwxMy44MzUsMTguNDIzLDEyLjA2MSwxNi4yMzMsMTIuMDYxeiBNMjguMDksMTIuMDYxYy0yLjE5MiwwLTMuOTY5LDEuNzc0LTMuOTY5LDMuOTY3JiMxMDsmIzk7JiM5O2MwLDIuMTksMS43NzQsMy45NjUsMy45NjksMy45NjVjMi4xODgsMCwzLjk2NS0xLjc3MiwzLjk2NS0zLjk2NVMzMC4yNzgsMTIuMDYxLDI4LjA5LDEyLjA2MXoiLz4mI3hhOzwvZz4mI3hhOzwvc3ZnPg==;container=0;" parent="1" vertex="1">
          <mxGeometry x="192" y="240" width="20" height="20" as="geometry" />
        </mxCell>
        <mxCell id="r9SthREOg3ZQguJcwbZm-19" value="" style="shape=image;verticalLabelPosition=bottom;labelBackgroundColor=default;verticalAlign=top;aspect=fixed;imageAspect=0;image=data:image/svg+xml,PHN2ZyB4bWxucz0iaHR0cDovL3d3dy53My5vcmcvMjAwMC9zdmciIHZpZXdCb3g9IjAgMCAyNCAyNCIgaGVpZ2h0PSI4MDBweCIgd2lkdGg9IjgwMHB4IiBmaWxsPSIjMDAwMDAwIj4mI3hhOzxwYXRoIGQ9Ik02LjM0OTk5IDYuMzQ4OTNMNC45Mjk5OSA0LjkyODkzQzYuODA1MjcgMy4wNTQyMiA5LjM0ODM1IDIuMDAxMDcgMTIgMi4wMDEwN0MxNC42NTE2IDIuMDAxMDcgMTcuMTk0NyAzLjA1NDIyIDE5LjA3IDQuOTI4OTNMMTcuNjUgNi4zNDg5M0MxNi4xNTAzIDQuODUyODMgMTQuMTE4NCA0LjAxMjYzIDEyIDQuMDEyNjNDOS44ODE2MiA0LjAxMjYzIDcuODQ5NzIgNC44NTI4MyA2LjM0OTk5IDYuMzQ4OTNaIi8+JiN4YTs8cGF0aCBkPSJNOS4xNzAwMSA5LjE2ODkzTDcuNzYwMDEgNy43NTg5M0M4Ljg4NTAxIDYuNjM1MzMgMTAuNDEgNi4wMDQyMSAxMiA2LjAwNDIxQzEzLjU5IDYuMDA0MjEgMTUuMTE1IDYuNjM1MzMgMTYuMjQgNy43NTg5M0wxNC44MiA5LjE3ODkzQzE0LjA3MzMgOC40Mjc3NiAxMy4wNTkyIDguMDAzNCAxMiA3Ljk5ODkzQzExLjQ3NDYgNy45OTg1MiAxMC45NTQyIDguMTAxNjMgMTAuNDY4NiA4LjMwMjM5QzkuOTgzMDMgOC41MDMxNCA5LjU0MTc2IDguNzk3NTkgOS4xNzAwMSA5LjE2ODkzWiIvPiYjeGE7PHBhdGggZD0iTTE4IDEwLjk5ODlIMTRDMTQgMTEuNTI5NCAxMy43ODkzIDEyLjAzODEgMTMuNDE0MiAxMi40MTMxQzEzLjAzOTEgMTIuNzg4MiAxMi41MzA0IDEyLjk5ODkgMTIgMTIuOTk4OUMxMS40Njk2IDEyLjk5ODkgMTAuOTYwOSAxMi43ODgyIDEwLjU4NTggMTIuNDEzMUMxMC4yMTA3IDEyLjAzODEgMTAgMTEuNTI5NCAxMCAxMC45OTg5SDZDNS40Njk1NyAxMC45OTg5IDQuOTYwODYgMTEuMjA5NiA0LjU4NTc5IDExLjU4NDdDNC4yMTA3MSAxMS45NTk4IDQgMTIuNDY4NSA0IDEyLjk5ODlWMjEuOTk4OUgyMFYxMi45OTg5QzIwIDEyLjQ2ODUgMTkuNzg5MyAxMS45NTk4IDE5LjQxNDIgMTEuNTg0N0MxOS4wMzkxIDExLjIwOTYgMTguNTMwNCAxMC45OTg5IDE4IDEwLjk5ODlaTTYgMTcuOTk4OVYxNC45OTg5SDE4VjE3Ljk5ODlINloiIGNsaXAtcnVsZT0iZXZlbm9kZCIgZmlsbC1ydWxlPSJldmVub2RkIi8+JiN4YTs8cGF0aCBkPSJNMTMgMTAuOTk4OUMxMyAxMS41NTEyIDEyLjU1MjMgMTEuOTk4OSAxMiAxMS45OTg5QzExLjQ0NzcgMTEuOTk4OSAxMSAxMS41NTEyIDExIDEwLjk5ODlDMTEgMTAuNDQ2NiAxMS40NDc3IDkuOTk4OTMgMTIgOS45OTg5M0MxMi41NTIzIDkuOTk4OTMgMTMgMTAuNDQ2NiAxMyAxMC45OTg5WiIvPiYjeGE7PC9zdmc+;container=0;" parent="1" vertex="1">
          <mxGeometry x="212" y="203" width="42" height="42" as="geometry" />
        </mxCell>
        <mxCell id="r9SthREOg3ZQguJcwbZm-20" value="" style="shape=image;verticalLabelPosition=bottom;labelBackgroundColor=default;verticalAlign=top;aspect=fixed;imageAspect=0;image=data:image/svg+xml,PHN2ZyB4bWxucz0iaHR0cDovL3d3dy53My5vcmcvMjAwMC9zdmciIGZpbGw9Im5vbmUiIHZpZXdCb3g9IjAgMCAyNCAyNCIgaGVpZ2h0PSI4MDBweCIgd2lkdGg9IjgwMHB4Ij4mI3hhOzxnIGlkPSJGaWxlIC8gRmlsZXMiPiYjeGE7PHBhdGggc3Ryb2tlLWxpbmVqb2luPSJyb3VuZCIgc3Ryb2tlLWxpbmVjYXA9InJvdW5kIiBzdHJva2Utd2lkdGg9IjIiIHN0cm9rZT0iIzAwMDAwMCIgZD0iTTkgNkg5LjMzNjg3QzkuNTgxNDYgNiA5LjcwMzg1IDYgOS44MTg5MyA2LjAyNzYzQzkuOTIwOTcgNi4wNTIxMyAxMC4wMTg5IDYuMDkyNjMgMTAuMTA4NCA2LjE0NzQ2QzEwLjIwOTMgNi4yMDkyOCAxMC4yOTU5IDYuMjk1OTEgMTAuNDY4OCA2LjQ2ODc1TDEzLjUzMTUgOS41MzE0OUMxMy43MDQ0IDkuNzA0NDQgMTMuNzkwNCA5Ljc5MDQ0IDEzLjg1MjMgOS44OTEzNUMxMy45MDcxIDkuOTgwODIgMTMuOTQ4MiAxMC4wNzg2IDEzLjk3MjcgMTAuMTgwN0MxNCAxMC4yOTQ2IDE0IDEwLjQxNTUgMTQgMTAuNjU1MlYxOE05IDZINC41OTk2MUM0LjAzOTU2IDYgMy43NTk4MSA2IDMuNTQ1OSA2LjEwODk5QzMuMzU3NzQgNi4yMDQ4NyAzLjIwNDg3IDYuMzU3NzQgMy4xMDg5OSA2LjU0NTlDMyA2Ljc1OTgxIDMgNy4wNDAwNCAzIDcuNjAwMVYxOS40MDAxQzMgMTkuOTYwMSAzIDIwLjIzOTggMy4xMDg5OSAyMC40NTM3QzMuMjA0ODcgMjAuNjQxOSAzLjM1Nzc0IDIwLjc5NTIgMy41NDU5IDIwLjg5MTFDMy43NTk2IDIxIDQuMDM5MDIgMjEgNC41OTggMjFMMTIuNDAxMSAyMUMxMi45NiAyMSAxMy4yNDA1IDIxIDEzLjQ1NDIgMjAuODkxMUMxMy42NDIzIDIwLjc5NTIgMTMuNzk0OCAyMC42NDIxIDEzLjg5MDYgMjAuNDUzOUMxMy45OTk2IDIwLjI0IDE0IDE5Ljk1OTkgMTQgMTkuMzk5OVYxOE05IDZWOS40QzkgOS45NjAwNSA5IDEwLjIzOTkgOS4xMDg5OSAxMC40NTM4QzkuMjA0ODcgMTAuNjQyIDkuMzU3NzQgMTAuNzk1MiA5LjU0NTkgMTAuODkxMUM5Ljc1OTYgMTEgMTAuMDM5IDExIDEwLjU5OCAxMUgxMy45OTk2TTEwIDYuMDAwMVY0LjYwMDFDMTAgNC4wNDAwNSAxMCAzLjc1OTgxIDEwLjEwOSAzLjU0NTlDMTAuMjA0OSAzLjM1Nzc0IDEwLjM1NzcgMy4yMDQ4NyAxMC41NDU5IDMuMTA4OTlDMTAuNzU5OCAzIDExLjAzOTYgMyAxMS41OTk2IDNIMTZNMTYgM0gxNi4zMzY5QzE2LjU4MTUgMyAxNi43MDM4IDMgMTYuODE4OSAzLjAyNzYzQzE2LjkyMSAzLjA1MjEzIDE3LjAxODkgMy4wOTI2MyAxNy4xMDg0IDMuMTQ3NDZDMTcuMjA5MyAzLjIwOTI4IDE3LjI5NTkgMy4yOTU5MiAxNy40Njg4IDMuNDY4NzVMMjAuNTMxNSA2LjUzMTQ5QzIwLjcwNDQgNi43MDQ0NCAyMC43OTA0IDYuNzkwNDQgMjAuODUyMyA2Ljg5MTM1QzIwLjkwNzEgNi45ODA4MiAyMC45NDgyIDcuMDc4NjMgMjAuOTcyNyA3LjE4MDY2QzIxIDcuMjk0NTggMjEgNy40MTU1MiAyMSA3LjY1NTE1VjE2LjM5OTlDMjEgMTYuOTU5OSAyMC45OTk2IDE3LjI0IDIwLjg5MDYgMTcuNDUzOUMyMC43OTQ4IDE3LjY0MjEgMjAuNjQyOSAxNy43OTUyIDIwLjQ1NDggMTcuODkxMUMyMC4yNDExIDE4IDE5Ljk2MSAxOCAxOS40MDIgMThIMTRNMTYgM1Y2LjRDMTYgNi45NjAwNSAxNiA3LjIzOTg4IDE2LjEwOSA3LjQ1MzhDMTYuMjA0OSA3LjY0MTk2IDE2LjM1NzcgNy43OTUyNCAxNi41NDU5IDcuODkxMTFDMTYuNzU5NiA4IDE3LjAzOSA4IDE3LjU5OCA4SDIwLjk5OTYiIGlkPSJWZWN0b3IiLz4mI3hhOzwvZz4mI3hhOzwvc3ZnPg==;container=0;" parent="1" vertex="1">
          <mxGeometry x="217" y="253" width="32" height="32" as="geometry" />
        </mxCell>
        <mxCell id="wQsuqYVdATBKCk65zNBt-2" value="" style="group" parent="1" vertex="1" connectable="0">
          <mxGeometry x="600" y="203" width="60" height="69" as="geometry" />
        </mxCell>
        <mxCell id="r9SthREOg3ZQguJcwbZm-23" value="" style="shape=image;verticalLabelPosition=bottom;labelBackgroundColor=default;verticalAlign=top;aspect=fixed;imageAspect=0;image=data:image/svg+xml,PHN2ZyB4bWxucz0iaHR0cDovL3d3dy53My5vcmcvMjAwMC9zdmciIGZpbGw9Im5vbmUiIHZpZXdCb3g9IjAgMCAyNCAyNCIgaGVpZ2h0PSI4MDBweCIgd2lkdGg9IjgwMHB4Ij4mI3hhOzxnIGlkPSJGaWxlIC8gRmlsZXMiPiYjeGE7PHBhdGggc3Ryb2tlLWxpbmVqb2luPSJyb3VuZCIgc3Ryb2tlLWxpbmVjYXA9InJvdW5kIiBzdHJva2Utd2lkdGg9IjIiIHN0cm9rZT0iIzAwMDAwMCIgZD0iTTkgNkg5LjMzNjg3QzkuNTgxNDYgNiA5LjcwMzg1IDYgOS44MTg5MyA2LjAyNzYzQzkuOTIwOTcgNi4wNTIxMyAxMC4wMTg5IDYuMDkyNjMgMTAuMTA4NCA2LjE0NzQ2QzEwLjIwOTMgNi4yMDkyOCAxMC4yOTU5IDYuMjk1OTEgMTAuNDY4OCA2LjQ2ODc1TDEzLjUzMTUgOS41MzE0OUMxMy43MDQ0IDkuNzA0NDQgMTMuNzkwNCA5Ljc5MDQ0IDEzLjg1MjMgOS44OTEzNUMxMy45MDcxIDkuOTgwODIgMTMuOTQ4MiAxMC4wNzg2IDEzLjk3MjcgMTAuMTgwN0MxNCAxMC4yOTQ2IDE0IDEwLjQxNTUgMTQgMTAuNjU1MlYxOE05IDZINC41OTk2MUM0LjAzOTU2IDYgMy43NTk4MSA2IDMuNTQ1OSA2LjEwODk5QzMuMzU3NzQgNi4yMDQ4NyAzLjIwNDg3IDYuMzU3NzQgMy4xMDg5OSA2LjU0NTlDMyA2Ljc1OTgxIDMgNy4wNDAwNCAzIDcuNjAwMVYxOS40MDAxQzMgMTkuOTYwMSAzIDIwLjIzOTggMy4xMDg5OSAyMC40NTM3QzMuMjA0ODcgMjAuNjQxOSAzLjM1Nzc0IDIwLjc5NTIgMy41NDU5IDIwLjg5MTFDMy43NTk2IDIxIDQuMDM5MDIgMjEgNC41OTggMjFMMTIuNDAxMSAyMUMxMi45NiAyMSAxMy4yNDA1IDIxIDEzLjQ1NDIgMjAuODkxMUMxMy42NDIzIDIwLjc5NTIgMTMuNzk0OCAyMC42NDIxIDEzLjg5MDYgMjAuNDUzOUMxMy45OTk2IDIwLjI0IDE0IDE5Ljk1OTkgMTQgMTkuMzk5OVYxOE05IDZWOS40QzkgOS45NjAwNSA5IDEwLjIzOTkgOS4xMDg5OSAxMC40NTM4QzkuMjA0ODcgMTAuNjQyIDkuMzU3NzQgMTAuNzk1MiA5LjU0NTkgMTAuODkxMUM5Ljc1OTYgMTEgMTAuMDM5IDExIDEwLjU5OCAxMUgxMy45OTk2TTEwIDYuMDAwMVY0LjYwMDFDMTAgNC4wNDAwNSAxMCAzLjc1OTgxIDEwLjEwOSAzLjU0NTlDMTAuMjA0OSAzLjM1Nzc0IDEwLjM1NzcgMy4yMDQ4NyAxMC41NDU5IDMuMTA4OTlDMTAuNzU5OCAzIDExLjAzOTYgMyAxMS41OTk2IDNIMTZNMTYgM0gxNi4zMzY5QzE2LjU4MTUgMyAxNi43MDM4IDMgMTYuODE4OSAzLjAyNzYzQzE2LjkyMSAzLjA1MjEzIDE3LjAxODkgMy4wOTI2MyAxNy4xMDg0IDMuMTQ3NDZDMTcuMjA5MyAzLjIwOTI4IDE3LjI5NTkgMy4yOTU5MiAxNy40Njg4IDMuNDY4NzVMMjAuNTMxNSA2LjUzMTQ5QzIwLjcwNDQgNi43MDQ0NCAyMC43OTA0IDYuNzkwNDQgMjAuODUyMyA2Ljg5MTM1QzIwLjkwNzEgNi45ODA4MiAyMC45NDgyIDcuMDc4NjMgMjAuOTcyNyA3LjE4MDY2QzIxIDcuMjk0NTggMjEgNy40MTU1MiAyMSA3LjY1NTE1VjE2LjM5OTlDMjEgMTYuOTU5OSAyMC45OTk2IDE3LjI0IDIwLjg5MDYgMTcuNDUzOUMyMC43OTQ4IDE3LjY0MjEgMjAuNjQyOSAxNy43OTUyIDIwLjQ1NDggMTcuODkxMUMyMC4yNDExIDE4IDE5Ljk2MSAxOCAxOS40MDIgMThIMTRNMTYgM1Y2LjRDMTYgNi45NjAwNSAxNiA3LjIzOTg4IDE2LjEwOSA3LjQ1MzhDMTYuMjA0OSA3LjY0MTk2IDE2LjM1NzcgNy43OTUyNCAxNi41NDU5IDcuODkxMTFDMTYuNzU5NiA4IDE3LjAzOSA4IDE3LjU5OCA4SDIwLjk5OTYiIGlkPSJWZWN0b3IiLz4mI3hhOzwvZz4mI3hhOzwvc3ZnPg==;" parent="wQsuqYVdATBKCk65zNBt-2" vertex="1">
          <mxGeometry x="14" width="32" height="32" as="geometry" />
        </mxCell>
        <mxCell id="r9SthREOg3ZQguJcwbZm-26" value="Sensor&lt;br&gt;Files" style="text;html=1;strokeColor=none;fillColor=none;align=center;verticalAlign=middle;whiteSpace=wrap;rounded=0;" parent="wQsuqYVdATBKCk65zNBt-2" vertex="1">
          <mxGeometry y="39" width="60" height="30" as="geometry" />
        </mxCell>
        <mxCell id="wQsuqYVdATBKCk65zNBt-5" value="" style="shape=flexArrow;endArrow=classic;html=1;rounded=0;strokeWidth=3;" parent="1" edge="1">
          <mxGeometry width="50" height="50" relative="1" as="geometry">
            <mxPoint x="400" y="210.5" as="sourcePoint" />
            <mxPoint x="580" y="210" as="targetPoint" />
          </mxGeometry>
        </mxCell>
        <mxCell id="9X0utidWsnC_Eckai9lG-1" value="LoggerNet" style="shape=image;verticalLabelPosition=bottom;labelBackgroundColor=default;verticalAlign=top;aspect=fixed;imageAspect=0;image=data:image/svg+xml,PHN2ZyB4bWxucz0iaHR0cDovL3d3dy53My5vcmcvMjAwMC9zdmciIHZpZXdCb3g9IjAgMCAyNCAyNCIgaGVpZ2h0PSI4MDBweCIgd2lkdGg9IjgwMHB4Ij48cGF0aCBkPSJNMTAgMTcuNzQ1djEuMDkybC0uMzIzLjE0MmExLjcwMiAxLjcwMiAwIDAgMS0xLjM1MiAwTDEgMTUuNzc0di05Ljk0YTIuNDU1IDIuNDU1IDAgMCAxIDEuNDcyLTIuMjUxbDUuODUtMi41NjJhMS43IDEuNyAwIDAgMSAxLjM1MyAwTDE3IDQuMjI2VjExaC0xVjQuODhMOS4yNzYgMS45MzlhLjcwOS43MDkgMCAwIDAtLjU1NCAwTDIuODczIDQuNUExLjQ1NiAxLjQ1NiAwIDAgMCAyIDUuODM0djkuMjg1bDYuNzI0IDIuOTQ0YS43MDkuNzA5IDAgMCAwIC41NTQtLjAwMXpNMTkgMThhMiAyIDAgMSAxLTItMiAyIDIgMCAwIDEgMiAyem0tMSAwYTEgMSAwIDEgMC0xIDEgMSAxIDAgMCAwIDEtMXptMy4zNC0xLjQ4NGwxLjY2LjYzNnYxLjY1bC0xLjU4Ni41OS0uMjk2LjYyOC43MjQgMS42MjQtMS4xNjIgMS4xNy0xLjU0My0uNzEtLjY1My4yMzYtLjYzNiAxLjY2aC0xLjY1bC0uNTktMS41ODYtLjYyOC0uMjk1LTEuNjI3LjcyNy0xLjE2Ny0xLjE2Ni43MS0xLjU0My0uMjM2LS42NTMtMS42Ni0uNjM2di0xLjY1bDEuNTg2LS41OS4yOTUtLjYyOC0uNzI3LTEuNjI3IDEuMTY2LTEuMTY3IDEuNTQzLjcxLjY1My0uMjM2LjYzNi0xLjY2aDEuNjVsLjU5IDEuNTg2LjYyOC4yOTYgMS42MjQtLjcyNCAxLjE2NiAxLjE2Ny0uNzA1IDEuNTM4em0uNjYgMS4xNjlsLTEuNDI3LS41NDgtLjQzNC0xLjIwNC41ODUtMS4yOC0uNDEyLS40MTItMS4zOTcuNjIyLTEuMTU4LS41NDQtLjQ5LTEuMzE5aC0uNTgybC0uNTQ4IDEuNDI3LTEuMjA2LjQzNC0xLjI4My0uNTktLjQxLjQxMS42MjYgMS40LS41NDUgMS4xNjEtMS4zMTkuNDl2LjU4MmwxLjQyNy41NDguNDM0IDEuMjA2LS41OSAxLjI4My40MTEuNDEgMS40LS42MjYgMS4xNjEuNTQ1LjQ5IDEuMzE5aC41ODJsLjU0OC0xLjQyNyAxLjIwNi0uNDM0IDEuMjguNTg4LjQxMS0uNDEzLS42MjMtMS4zOTkuNTQ0LTEuMTU4IDEuMzE5LS40OXoiLz48cGF0aCBkPSJNMCAwaDI0djI0SDB6IiBmaWxsPSJub25lIi8+PC9zdmc+;" parent="1" vertex="1">
          <mxGeometry x="334" y="180" width="40" height="40" as="geometry" />
        </mxCell>
        <mxCell id="9X0utidWsnC_Eckai9lG-2" value="" style="group" parent="1" vertex="1" connectable="0">
          <mxGeometry x="324" y="250" width="60" height="69" as="geometry" />
        </mxCell>
        <mxCell id="9X0utidWsnC_Eckai9lG-3" value="" style="shape=image;verticalLabelPosition=bottom;labelBackgroundColor=default;verticalAlign=top;aspect=fixed;imageAspect=0;image=data:image/svg+xml,PHN2ZyB4bWxucz0iaHR0cDovL3d3dy53My5vcmcvMjAwMC9zdmciIGZpbGw9Im5vbmUiIHZpZXdCb3g9IjAgMCAyNCAyNCIgaGVpZ2h0PSI4MDBweCIgd2lkdGg9IjgwMHB4Ij4mI3hhOzxnIGlkPSJGaWxlIC8gRmlsZXMiPiYjeGE7PHBhdGggc3Ryb2tlLWxpbmVqb2luPSJyb3VuZCIgc3Ryb2tlLWxpbmVjYXA9InJvdW5kIiBzdHJva2Utd2lkdGg9IjIiIHN0cm9rZT0iIzAwMDAwMCIgZD0iTTkgNkg5LjMzNjg3QzkuNTgxNDYgNiA5LjcwMzg1IDYgOS44MTg5MyA2LjAyNzYzQzkuOTIwOTcgNi4wNTIxMyAxMC4wMTg5IDYuMDkyNjMgMTAuMTA4NCA2LjE0NzQ2QzEwLjIwOTMgNi4yMDkyOCAxMC4yOTU5IDYuMjk1OTEgMTAuNDY4OCA2LjQ2ODc1TDEzLjUzMTUgOS41MzE0OUMxMy43MDQ0IDkuNzA0NDQgMTMuNzkwNCA5Ljc5MDQ0IDEzLjg1MjMgOS44OTEzNUMxMy45MDcxIDkuOTgwODIgMTMuOTQ4MiAxMC4wNzg2IDEzLjk3MjcgMTAuMTgwN0MxNCAxMC4yOTQ2IDE0IDEwLjQxNTUgMTQgMTAuNjU1MlYxOE05IDZINC41OTk2MUM0LjAzOTU2IDYgMy43NTk4MSA2IDMuNTQ1OSA2LjEwODk5QzMuMzU3NzQgNi4yMDQ4NyAzLjIwNDg3IDYuMzU3NzQgMy4xMDg5OSA2LjU0NTlDMyA2Ljc1OTgxIDMgNy4wNDAwNCAzIDcuNjAwMVYxOS40MDAxQzMgMTkuOTYwMSAzIDIwLjIzOTggMy4xMDg5OSAyMC40NTM3QzMuMjA0ODcgMjAuNjQxOSAzLjM1Nzc0IDIwLjc5NTIgMy41NDU5IDIwLjg5MTFDMy43NTk2IDIxIDQuMDM5MDIgMjEgNC41OTggMjFMMTIuNDAxMSAyMUMxMi45NiAyMSAxMy4yNDA1IDIxIDEzLjQ1NDIgMjAuODkxMUMxMy42NDIzIDIwLjc5NTIgMTMuNzk0OCAyMC42NDIxIDEzLjg5MDYgMjAuNDUzOUMxMy45OTk2IDIwLjI0IDE0IDE5Ljk1OTkgMTQgMTkuMzk5OVYxOE05IDZWOS40QzkgOS45NjAwNSA5IDEwLjIzOTkgOS4xMDg5OSAxMC40NTM4QzkuMjA0ODcgMTAuNjQyIDkuMzU3NzQgMTAuNzk1MiA5LjU0NTkgMTAuODkxMUM5Ljc1OTYgMTEgMTAuMDM5IDExIDEwLjU5OCAxMUgxMy45OTk2TTEwIDYuMDAwMVY0LjYwMDFDMTAgNC4wNDAwNSAxMCAzLjc1OTgxIDEwLjEwOSAzLjU0NTlDMTAuMjA0OSAzLjM1Nzc0IDEwLjM1NzcgMy4yMDQ4NyAxMC41NDU5IDMuMTA4OTlDMTAuNzU5OCAzIDExLjAzOTYgMyAxMS41OTk2IDNIMTZNMTYgM0gxNi4zMzY5QzE2LjU4MTUgMyAxNi43MDM4IDMgMTYuODE4OSAzLjAyNzYzQzE2LjkyMSAzLjA1MjEzIDE3LjAxODkgMy4wOTI2MyAxNy4xMDg0IDMuMTQ3NDZDMTcuMjA5MyAzLjIwOTI4IDE3LjI5NTkgMy4yOTU5MiAxNy40Njg4IDMuNDY4NzVMMjAuNTMxNSA2LjUzMTQ5QzIwLjcwNDQgNi43MDQ0NCAyMC43OTA0IDYuNzkwNDQgMjAuODUyMyA2Ljg5MTM1QzIwLjkwNzEgNi45ODA4MiAyMC45NDgyIDcuMDc4NjMgMjAuOTcyNyA3LjE4MDY2QzIxIDcuMjk0NTggMjEgNy40MTU1MiAyMSA3LjY1NTE1VjE2LjM5OTlDMjEgMTYuOTU5OSAyMC45OTk2IDE3LjI0IDIwLjg5MDYgMTcuNDUzOUMyMC43OTQ4IDE3LjY0MjEgMjAuNjQyOSAxNy43OTUyIDIwLjQ1NDggMTcuODkxMUMyMC4yNDExIDE4IDE5Ljk2MSAxOCAxOS40MDIgMThIMTRNMTYgM1Y2LjRDMTYgNi45NjAwNSAxNiA3LjIzOTg4IDE2LjEwOSA3LjQ1MzhDMTYuMjA0OSA3LjY0MTk2IDE2LjM1NzcgNy43OTUyNCAxNi41NDU5IDcuODkxMTFDMTYuNzU5NiA4IDE3LjAzOSA4IDE3LjU5OCA4SDIwLjk5OTYiIGlkPSJWZWN0b3IiLz4mI3hhOzwvZz4mI3hhOzwvc3ZnPg==;" parent="9X0utidWsnC_Eckai9lG-2" vertex="1">
          <mxGeometry x="14" width="32" height="32" as="geometry" />
        </mxCell>
        <mxCell id="9X0utidWsnC_Eckai9lG-4" value="3rd Party&lt;br&gt;Filesystem" style="text;html=1;strokeColor=none;fillColor=none;align=center;verticalAlign=middle;whiteSpace=wrap;rounded=0;" parent="9X0utidWsnC_Eckai9lG-2" vertex="1">
          <mxGeometry y="40" width="60" height="29" as="geometry" />
        </mxCell>
        <mxCell id="9X0utidWsnC_Eckai9lG-7" value="Transfer Files,&#xa;Unzip&#xa;&amp; Decrypt" style="shape=image;verticalLabelPosition=bottom;labelBackgroundColor=default;verticalAlign=top;aspect=fixed;imageAspect=0;image=data:image/svg+xml,PHN2ZyB4bWxucz0iaHR0cDovL3d3dy53My5vcmcvMjAwMC9zdmciIGZpbGw9Im5vbmUiIHZpZXdCb3g9IjAgMCAxNiAxNiIgaGVpZ2h0PSI4MDBweCIgd2lkdGg9IjgwMHB4Ij4mI3hhOyAgPHBhdGggZmlsbD0iIzAwMDAwMCIgZD0iTTUuNzkgMS41NzRoMy44NjZjLjE0IDAgLjI1Mi4xMS4yNTIuMjQ2djUuMTg2YS4yNS4yNSAwIDAxLS4yNTIuMjQ2SDYuMzQ0Yy0uOTc1IDAtMS43NjYuNzctMS43NjYgMS43MnYxLjE2MmEuMjUuMjUgMCAwMS0uMjUzLjI0M0gxLjg2N2EuMjUuMjUgMCAwMS0uMjUzLS4yNDZWNi4xNzdhLjI1LjI1IDAgMDEuMjUyLS4yNDZINy45OGMuNDE4IDAgLjc1Ny0uMzMuNzU3LS43MzdhLjc0Ny43NDcgMCAwMC0uNzU3LS43MzhINS41MzdWMS44MmEuMjUuMjUgMCAwMS4yNTMtLjI0NnptNS42MzIgMi41OTJWMS44MmMwLS45NS0uNzktMS43Mi0xLjc2Ni0xLjcySDUuNzljLS45NzYgMC0xLjc2Ny43Ny0xLjc2NyAxLjcydjIuNjM2SDEuODY3Qy44OSA0LjQ1Ni4xIDUuMjI2LjEgNi4xNzZ2My45NTVjMCAuOTUuNzkgMS43MiAxLjc2NiAxLjcyaDIuNDZjLjA4NSAwIC4xNy0uMDA2LjI1Mi0uMDE3djIuMzQ2YzAgLjk1Ljc5IDEuNzIgMS43NjYgMS43MmgzLjg2NmMuOTc2IDAgMS43NjctLjc3IDEuNzY3LTEuNzJ2LTIuNjM2aDIuMTU2Yy45NzYgMCAxLjc2Ny0uNzcgMS43NjctMS43MlY1Ljg2OGMwLS45NS0uNzktMS43Mi0xLjc2Ny0xLjcyaC0yLjQ1OGMtLjA4NiAwLS4xNy4wMDUtLjI1My4wMTd6bS01LjMzIDUuOTc0VjguOTk0YS4yNS4yNSAwIDAxLjI1Mi0uMjQ2aDMuMzEyYy45NzYgMCAxLjc2Ni0uNzcgMS43NjYtMS43MlY1Ljg2NmEuMjUuMjUgMCAwMS4yNTMtLjI0M2gyLjQ1OGMuMTQgMCAuMjUzLjExLjI1My4yNDZ2My45NTRhLjI1LjI1IDAgMDEtLjI1Mi4yNDZIOC4wMmEuNzQ3Ljc0NyAwIDAwLS43NTcuNzM3YzAgLjQwOC4zMzkuNzM4Ljc1Ny43MzhoMi40NDJ2Mi42MzZhLjI1LjI1IDAgMDEtLjI1My4yNDZINi4zNDRhLjI1LjI1IDAgMDEtLjI1Mi0uMjQ2di00LjA0eiIvPiYjeGE7PC9zdmc+;" parent="1" vertex="1">
          <mxGeometry x="473" y="250" width="34" height="34" as="geometry" />
        </mxCell>
        <mxCell id="9X0utidWsnC_Eckai9lG-8" value="" style="shape=flexArrow;endArrow=classic;html=1;rounded=0;strokeWidth=3;startSize=6;" parent="1" edge="1">
          <mxGeometry width="50" height="50" relative="1" as="geometry">
            <mxPoint x="534" y="265.25" as="sourcePoint" />
            <mxPoint x="577" y="264.75" as="targetPoint" />
          </mxGeometry>
        </mxCell>
        <mxCell id="MgTPKELLdme_GHlD1wxD-1" value="Task&#xa;Scheduler" style="shape=image;verticalLabelPosition=bottom;labelBackgroundColor=default;verticalAlign=top;aspect=fixed;imageAspect=0;image=data:image/svg+xml,PHN2ZyB4bWxucz0iaHR0cDovL3d3dy53My5vcmcvMjAwMC9zdmciIHZpZXdCb3g9IjAgMCAyNCAyNCIgaGVpZ2h0PSI4MDBweCIgd2lkdGg9IjgwMHB4Ij48cGF0aCBkPSJNMTAgMTcuNzQ1djEuMDkybC0uMzIzLjE0MmExLjcwMiAxLjcwMiAwIDAgMS0xLjM1MiAwTDEgMTUuNzc0di05Ljk0YTIuNDU1IDIuNDU1IDAgMCAxIDEuNDcyLTIuMjUxbDUuODUtMi41NjJhMS43IDEuNyAwIDAgMSAxLjM1MyAwTDE3IDQuMjI2VjExaC0xVjQuODhMOS4yNzYgMS45MzlhLjcwOS43MDkgMCAwIDAtLjU1NCAwTDIuODczIDQuNUExLjQ1NiAxLjQ1NiAwIDAgMCAyIDUuODM0djkuMjg1bDYuNzI0IDIuOTQ0YS43MDkuNzA5IDAgMCAwIC41NTQtLjAwMXpNMTkgMThhMiAyIDAgMSAxLTItMiAyIDIgMCAwIDEgMiAyem0tMSAwYTEgMSAwIDEgMC0xIDEgMSAxIDAgMCAwIDEtMXptMy4zNC0xLjQ4NGwxLjY2LjYzNnYxLjY1bC0xLjU4Ni41OS0uMjk2LjYyOC43MjQgMS42MjQtMS4xNjIgMS4xNy0xLjU0My0uNzEtLjY1My4yMzYtLjYzNiAxLjY2aC0xLjY1bC0uNTktMS41ODYtLjYyOC0uMjk1LTEuNjI3LjcyNy0xLjE2Ny0xLjE2Ni43MS0xLjU0My0uMjM2LS42NTMtMS42Ni0uNjM2di0xLjY1bDEuNTg2LS41OS4yOTUtLjYyOC0uNzI3LTEuNjI3IDEuMTY2LTEuMTY3IDEuNTQzLjcxLjY1My0uMjM2LjYzNi0xLjY2aDEuNjVsLjU5IDEuNTg2LjYyOC4yOTYgMS42MjQtLjcyNCAxLjE2NiAxLjE2Ny0uNzA1IDEuNTM4em0uNjYgMS4xNjlsLTEuNDI3LS41NDgtLjQzNC0xLjIwNC41ODUtMS4yOC0uNDEyLS40MTItMS4zOTcuNjIyLTEuMTU4LS41NDQtLjQ5LTEuMzE5aC0uNTgybC0uNTQ4IDEuNDI3LTEuMjA2LjQzNC0xLjI4My0uNTktLjQxLjQxMS42MjYgMS40LS41NDUgMS4xNjEtMS4zMTkuNDl2LjU4MmwxLjQyNy41NDguNDM0IDEuMjA2LS41OSAxLjI4My40MTEuNDEgMS40LS42MjYgMS4xNjEuNTQ1LjQ5IDEuMzE5aC41ODJsLjU0OC0xLjQyNyAxLjIwNi0uNDM0IDEuMjguNTg4LjQxMS0uNDEzLS42MjMtMS4zOTkuNTQ0LTEuMTU4IDEuMzE5LS40OXoiLz48cGF0aCBkPSJNMCAwaDI0djI0SDB6IiBmaWxsPSJub25lIi8+PC9zdmc+;" vertex="1" parent="1">
          <mxGeometry x="473" y="400" width="40" height="40" as="geometry" />
        </mxCell>
        <mxCell id="MgTPKELLdme_GHlD1wxD-2" value="" style="shape=flexArrow;endArrow=classic;html=1;rounded=0;strokeWidth=3;startSize=6;" edge="1" parent="1">
          <mxGeometry width="50" height="50" relative="1" as="geometry">
            <mxPoint x="400" y="267" as="sourcePoint" />
            <mxPoint x="443" y="266.5" as="targetPoint" />
          </mxGeometry>
        </mxCell>
        <mxCell id="MgTPKELLdme_GHlD1wxD-3" value="" style="shape=flexArrow;endArrow=classic;html=1;rounded=0;strokeWidth=3;startSize=6;" edge="1" parent="1">
          <mxGeometry width="50" height="50" relative="1" as="geometry">
            <mxPoint x="489.5" y="386.5" as="sourcePoint" />
            <mxPoint x="489.75" y="340" as="targetPoint" />
          </mxGeometry>
        </mxCell>
      </root>
    </mxGraphModel>
  </diagram>
</mxfile>
